<svg width="21" height="28" viewBox="0 0 21 28" fill="none" xmlns="http://www.w3.org/2000/svg">
<path d="M3.78635 5.18962C3.08208 4.53281 1.95559 4.54753 1.27027 5.22249C0.584947 5.89746 0.600306 6.97708 1.30457 7.63389L5.32143 11.3801C7.15252 13.0878 10.0814 13.0495 11.8632 11.2946L15.3934 7.81778L20.4831 2.90704C21.1756 2.23886 21.1718 1.15915 20.4746 0.495431C19.7774 -0.168286 18.6509 -0.164669 17.9583 0.50351L12.8558 5.42668L9.31285 8.91606C8.90165 9.32104 8.22576 9.32987 7.8032 8.93578L3.78635 5.18962Z" fill="#FF5100"/>
<path fill-rule="evenodd" clip-rule="evenodd" d="M4.95946 12.4701L4.51151 12.0524C3.79521 12.4415 3.12371 12.9333 2.52055 13.5273C-0.90606 16.9022 -0.829265 22.3003 2.69208 25.5843C6.21342 28.8684 11.8459 28.7948 15.2725 25.4199C18.6991 22.0451 18.6223 16.647 15.1009 13.3629C14.4579 12.7633 13.7445 12.2755 12.987 11.8994L12.5077 12.3715C10.4517 14.3964 7.07226 14.4406 4.95946 12.4701ZM12.5946 22.9225C14.582 20.9651 14.5375 17.8342 12.4951 15.9294C10.4527 14.0247 7.18589 14.0674 5.19845 16.0248C3.21102 17.9822 3.25556 21.1131 5.29794 23.0178C7.34032 24.9226 10.6071 24.8799 12.5946 22.9225Z" fill="#FF5100"/>
</svg>
